<mxfile host="app.diagrams.net" modified="2024-02-27T14:51:33.649Z" agent="Mozilla/5.0 (Windows NT 10.0; Win64; x64) AppleWebKit/537.36 (KHTML, like Gecko) Chrome/122.0.0.0 Safari/537.36" etag="UmlP0ky2FDPMeli4-8-5" version="23.1.7" type="device">
  <diagram id="C5RBs43oDa-KdzZeNtuy" name="Page-1">
    <mxGraphModel dx="1313" dy="816" grid="0" gridSize="10" guides="1" tooltips="1" connect="1" arrows="1" fold="1" page="0" pageScale="1" pageWidth="827" pageHeight="1169" background="none" math="0" shadow="0">
      <root>
        <mxCell id="WIyWlLk6GJQsqaUBKTNV-0" />
        <mxCell id="WIyWlLk6GJQsqaUBKTNV-1" parent="WIyWlLk6GJQsqaUBKTNV-0" />
        <mxCell id="dHFoVSKMH6eHMZOiBptk-70" style="edgeStyle=orthogonalEdgeStyle;rounded=0;orthogonalLoop=1;jettySize=auto;html=1;exitX=0.5;exitY=1;exitDx=0;exitDy=0;entryX=0.5;entryY=0;entryDx=0;entryDy=0;" edge="1" parent="WIyWlLk6GJQsqaUBKTNV-1" source="WIyWlLk6GJQsqaUBKTNV-3" target="dHFoVSKMH6eHMZOiBptk-69">
          <mxGeometry relative="1" as="geometry" />
        </mxCell>
        <mxCell id="WIyWlLk6GJQsqaUBKTNV-3" value="User wählt Bauteil aus" style="rounded=1;whiteSpace=wrap;html=1;fontSize=12;glass=0;strokeWidth=1;shadow=0;" parent="WIyWlLk6GJQsqaUBKTNV-1" vertex="1">
          <mxGeometry x="160" y="30" width="120" height="40" as="geometry" />
        </mxCell>
        <mxCell id="dHFoVSKMH6eHMZOiBptk-10" style="edgeStyle=orthogonalEdgeStyle;rounded=0;orthogonalLoop=1;jettySize=auto;html=1;exitX=1;exitY=0.5;exitDx=0;exitDy=0;entryX=0;entryY=0.5;entryDx=0;entryDy=0;" edge="1" parent="WIyWlLk6GJQsqaUBKTNV-1" source="WIyWlLk6GJQsqaUBKTNV-6" target="dHFoVSKMH6eHMZOiBptk-8">
          <mxGeometry relative="1" as="geometry" />
        </mxCell>
        <mxCell id="dHFoVSKMH6eHMZOiBptk-78" value="Nein" style="edgeLabel;html=1;align=center;verticalAlign=middle;resizable=0;points=[];" vertex="1" connectable="0" parent="dHFoVSKMH6eHMZOiBptk-10">
          <mxGeometry x="-0.0847" y="-2" relative="1" as="geometry">
            <mxPoint x="1" as="offset" />
          </mxGeometry>
        </mxCell>
        <mxCell id="dHFoVSKMH6eHMZOiBptk-55" style="edgeStyle=orthogonalEdgeStyle;rounded=0;orthogonalLoop=1;jettySize=auto;html=1;exitX=0.5;exitY=1;exitDx=0;exitDy=0;entryX=0.5;entryY=0;entryDx=0;entryDy=0;" edge="1" parent="WIyWlLk6GJQsqaUBKTNV-1" source="WIyWlLk6GJQsqaUBKTNV-6" target="dHFoVSKMH6eHMZOiBptk-54">
          <mxGeometry relative="1" as="geometry" />
        </mxCell>
        <mxCell id="dHFoVSKMH6eHMZOiBptk-56" value="Ja" style="edgeLabel;html=1;align=center;verticalAlign=middle;resizable=0;points=[];" vertex="1" connectable="0" parent="dHFoVSKMH6eHMZOiBptk-55">
          <mxGeometry x="0.0784" y="-3" relative="1" as="geometry">
            <mxPoint y="1" as="offset" />
          </mxGeometry>
        </mxCell>
        <mxCell id="WIyWlLk6GJQsqaUBKTNV-6" value="Anschlagsensor&lt;br&gt;aktiviert?" style="rhombus;whiteSpace=wrap;html=1;shadow=0;fontFamily=Helvetica;fontSize=12;align=center;strokeWidth=1;spacing=6;spacingTop=-4;" parent="WIyWlLk6GJQsqaUBKTNV-1" vertex="1">
          <mxGeometry x="160" y="170" width="120" height="80" as="geometry" />
        </mxCell>
        <mxCell id="dHFoVSKMH6eHMZOiBptk-41" style="edgeStyle=orthogonalEdgeStyle;rounded=0;orthogonalLoop=1;jettySize=auto;html=1;exitX=0.5;exitY=1;exitDx=0;exitDy=0;entryX=0.5;entryY=0;entryDx=0;entryDy=0;" edge="1" parent="WIyWlLk6GJQsqaUBKTNV-1" source="dHFoVSKMH6eHMZOiBptk-2" target="dHFoVSKMH6eHMZOiBptk-24">
          <mxGeometry relative="1" as="geometry" />
        </mxCell>
        <mxCell id="dHFoVSKMH6eHMZOiBptk-2" value="Förderband &lt;br&gt;aktivieren" style="rounded=1;whiteSpace=wrap;html=1;fontSize=12;glass=0;strokeWidth=1;shadow=0;" vertex="1" parent="WIyWlLk6GJQsqaUBKTNV-1">
          <mxGeometry x="420" y="350" width="120" height="40" as="geometry" />
        </mxCell>
        <mxCell id="dHFoVSKMH6eHMZOiBptk-13" style="edgeStyle=orthogonalEdgeStyle;rounded=0;orthogonalLoop=1;jettySize=auto;html=1;exitX=1;exitY=0.5;exitDx=0;exitDy=0;entryX=0;entryY=0.5;entryDx=0;entryDy=0;" edge="1" parent="WIyWlLk6GJQsqaUBKTNV-1" source="dHFoVSKMH6eHMZOiBptk-8" target="dHFoVSKMH6eHMZOiBptk-12">
          <mxGeometry relative="1" as="geometry" />
        </mxCell>
        <mxCell id="dHFoVSKMH6eHMZOiBptk-79" value="Ja" style="edgeLabel;html=1;align=center;verticalAlign=middle;resizable=0;points=[];" vertex="1" connectable="0" parent="dHFoVSKMH6eHMZOiBptk-13">
          <mxGeometry x="0.0176" relative="1" as="geometry">
            <mxPoint as="offset" />
          </mxGeometry>
        </mxCell>
        <mxCell id="dHFoVSKMH6eHMZOiBptk-80" style="edgeStyle=orthogonalEdgeStyle;rounded=0;orthogonalLoop=1;jettySize=auto;html=1;exitX=0.5;exitY=1;exitDx=0;exitDy=0;entryX=0.5;entryY=0;entryDx=0;entryDy=0;" edge="1" parent="WIyWlLk6GJQsqaUBKTNV-1" source="dHFoVSKMH6eHMZOiBptk-8" target="dHFoVSKMH6eHMZOiBptk-2">
          <mxGeometry relative="1" as="geometry" />
        </mxCell>
        <mxCell id="dHFoVSKMH6eHMZOiBptk-81" value="Nein" style="edgeLabel;html=1;align=center;verticalAlign=middle;resizable=0;points=[];" vertex="1" connectable="0" parent="dHFoVSKMH6eHMZOiBptk-80">
          <mxGeometry x="-0.7982" y="-4" relative="1" as="geometry">
            <mxPoint as="offset" />
          </mxGeometry>
        </mxCell>
        <mxCell id="dHFoVSKMH6eHMZOiBptk-8" value="Gespannt?" style="rhombus;whiteSpace=wrap;html=1;shadow=0;fontFamily=Helvetica;fontSize=12;align=center;strokeWidth=1;spacing=6;spacingTop=-4;" vertex="1" parent="WIyWlLk6GJQsqaUBKTNV-1">
          <mxGeometry x="330" y="170" width="120" height="80" as="geometry" />
        </mxCell>
        <mxCell id="dHFoVSKMH6eHMZOiBptk-19" style="edgeStyle=orthogonalEdgeStyle;rounded=0;orthogonalLoop=1;jettySize=auto;html=1;exitX=0.5;exitY=1;exitDx=0;exitDy=0;entryX=1;entryY=0.5;entryDx=0;entryDy=0;" edge="1" parent="WIyWlLk6GJQsqaUBKTNV-1" source="dHFoVSKMH6eHMZOiBptk-12" target="dHFoVSKMH6eHMZOiBptk-2">
          <mxGeometry relative="1" as="geometry" />
        </mxCell>
        <mxCell id="dHFoVSKMH6eHMZOiBptk-12" value="Entspannen" style="rounded=1;whiteSpace=wrap;html=1;fontSize=12;glass=0;strokeWidth=1;shadow=0;" vertex="1" parent="WIyWlLk6GJQsqaUBKTNV-1">
          <mxGeometry x="510" y="190" width="120" height="40" as="geometry" />
        </mxCell>
        <mxCell id="dHFoVSKMH6eHMZOiBptk-29" style="edgeStyle=orthogonalEdgeStyle;rounded=0;orthogonalLoop=1;jettySize=auto;html=1;exitX=0.5;exitY=1;exitDx=0;exitDy=0;entryX=0.5;entryY=0;entryDx=0;entryDy=0;" edge="1" parent="WIyWlLk6GJQsqaUBKTNV-1" source="dHFoVSKMH6eHMZOiBptk-24" target="dHFoVSKMH6eHMZOiBptk-27">
          <mxGeometry relative="1" as="geometry" />
        </mxCell>
        <mxCell id="dHFoVSKMH6eHMZOiBptk-44" value="Ja" style="edgeLabel;html=1;align=center;verticalAlign=middle;resizable=0;points=[];" vertex="1" connectable="0" parent="dHFoVSKMH6eHMZOiBptk-29">
          <mxGeometry x="-0.1092" y="-2" relative="1" as="geometry">
            <mxPoint as="offset" />
          </mxGeometry>
        </mxCell>
        <mxCell id="dHFoVSKMH6eHMZOiBptk-42" style="edgeStyle=orthogonalEdgeStyle;rounded=0;orthogonalLoop=1;jettySize=auto;html=1;exitX=0;exitY=0.5;exitDx=0;exitDy=0;entryX=0;entryY=0.5;entryDx=0;entryDy=0;" edge="1" parent="WIyWlLk6GJQsqaUBKTNV-1" source="dHFoVSKMH6eHMZOiBptk-24" target="dHFoVSKMH6eHMZOiBptk-2">
          <mxGeometry relative="1" as="geometry">
            <mxPoint x="410" y="370" as="targetPoint" />
          </mxGeometry>
        </mxCell>
        <mxCell id="dHFoVSKMH6eHMZOiBptk-43" value="Nein" style="edgeLabel;html=1;align=center;verticalAlign=middle;resizable=0;points=[];" vertex="1" connectable="0" parent="dHFoVSKMH6eHMZOiBptk-42">
          <mxGeometry x="-0.2903" y="5" relative="1" as="geometry">
            <mxPoint as="offset" />
          </mxGeometry>
        </mxCell>
        <mxCell id="dHFoVSKMH6eHMZOiBptk-24" value="Anschlagsensor&lt;br&gt;aktiviert?" style="rhombus;whiteSpace=wrap;html=1;shadow=0;fontFamily=Helvetica;fontSize=12;align=center;strokeWidth=1;spacing=6;spacingTop=-4;" vertex="1" parent="WIyWlLk6GJQsqaUBKTNV-1">
          <mxGeometry x="420" y="455" width="120" height="80" as="geometry" />
        </mxCell>
        <mxCell id="dHFoVSKMH6eHMZOiBptk-48" style="edgeStyle=orthogonalEdgeStyle;rounded=0;orthogonalLoop=1;jettySize=auto;html=1;exitX=0;exitY=0.5;exitDx=0;exitDy=0;entryX=1;entryY=0.5;entryDx=0;entryDy=0;" edge="1" parent="WIyWlLk6GJQsqaUBKTNV-1" source="dHFoVSKMH6eHMZOiBptk-27" target="dHFoVSKMH6eHMZOiBptk-39">
          <mxGeometry relative="1" as="geometry" />
        </mxCell>
        <mxCell id="dHFoVSKMH6eHMZOiBptk-27" value="Förderband deaktivieren" style="rounded=1;whiteSpace=wrap;html=1;fontSize=12;glass=0;strokeWidth=1;shadow=0;" vertex="1" parent="WIyWlLk6GJQsqaUBKTNV-1">
          <mxGeometry x="420" y="570" width="120" height="40" as="geometry" />
        </mxCell>
        <mxCell id="dHFoVSKMH6eHMZOiBptk-86" style="edgeStyle=orthogonalEdgeStyle;rounded=0;orthogonalLoop=1;jettySize=auto;html=1;exitX=1;exitY=0.5;exitDx=0;exitDy=0;entryX=1;entryY=0.5;entryDx=0;entryDy=0;" edge="1" parent="WIyWlLk6GJQsqaUBKTNV-1" source="dHFoVSKMH6eHMZOiBptk-33" target="dHFoVSKMH6eHMZOiBptk-38">
          <mxGeometry relative="1" as="geometry" />
        </mxCell>
        <mxCell id="dHFoVSKMH6eHMZOiBptk-33" value="Roboterarm über Bauteil positionieren" style="rounded=1;whiteSpace=wrap;html=1;fontSize=12;glass=0;strokeWidth=1;shadow=0;" vertex="1" parent="WIyWlLk6GJQsqaUBKTNV-1">
          <mxGeometry x="458" y="640" width="120" height="40" as="geometry" />
        </mxCell>
        <mxCell id="dHFoVSKMH6eHMZOiBptk-87" style="edgeStyle=orthogonalEdgeStyle;rounded=0;orthogonalLoop=1;jettySize=auto;html=1;exitX=0;exitY=0.5;exitDx=0;exitDy=0;entryX=1;entryY=0.5;entryDx=0;entryDy=0;" edge="1" parent="WIyWlLk6GJQsqaUBKTNV-1" source="dHFoVSKMH6eHMZOiBptk-38" target="dHFoVSKMH6eHMZOiBptk-66">
          <mxGeometry relative="1" as="geometry" />
        </mxCell>
        <mxCell id="dHFoVSKMH6eHMZOiBptk-38" value="Sauger aktivieren u. Bauteil anheben" style="rounded=1;whiteSpace=wrap;html=1;fontSize=12;glass=0;strokeWidth=1;shadow=0;" vertex="1" parent="WIyWlLk6GJQsqaUBKTNV-1">
          <mxGeometry x="458" y="706" width="120" height="40" as="geometry" />
        </mxCell>
        <mxCell id="dHFoVSKMH6eHMZOiBptk-62" style="edgeStyle=orthogonalEdgeStyle;rounded=0;orthogonalLoop=1;jettySize=auto;html=1;exitX=0.5;exitY=1;exitDx=0;exitDy=0;entryX=0.5;entryY=0;entryDx=0;entryDy=0;" edge="1" parent="WIyWlLk6GJQsqaUBKTNV-1" source="dHFoVSKMH6eHMZOiBptk-39" target="dHFoVSKMH6eHMZOiBptk-61">
          <mxGeometry relative="1" as="geometry" />
        </mxCell>
        <mxCell id="dHFoVSKMH6eHMZOiBptk-39" value="Spannen" style="rounded=1;whiteSpace=wrap;html=1;fontSize=12;glass=0;strokeWidth=1;shadow=0;" vertex="1" parent="WIyWlLk6GJQsqaUBKTNV-1">
          <mxGeometry x="160" y="570" width="120" height="40" as="geometry" />
        </mxCell>
        <mxCell id="dHFoVSKMH6eHMZOiBptk-85" style="edgeStyle=orthogonalEdgeStyle;rounded=0;orthogonalLoop=1;jettySize=auto;html=1;exitX=1;exitY=0.5;exitDx=0;exitDy=0;entryX=0;entryY=0.5;entryDx=0;entryDy=0;" edge="1" parent="WIyWlLk6GJQsqaUBKTNV-1" source="dHFoVSKMH6eHMZOiBptk-50" target="dHFoVSKMH6eHMZOiBptk-33">
          <mxGeometry relative="1" as="geometry" />
        </mxCell>
        <mxCell id="dHFoVSKMH6eHMZOiBptk-50" value="Nachricht an Roboter senden (positioniert)" style="rounded=1;whiteSpace=wrap;html=1;fontSize=12;glass=0;strokeWidth=1;shadow=0;" vertex="1" parent="WIyWlLk6GJQsqaUBKTNV-1">
          <mxGeometry x="309" y="640" width="120" height="40" as="geometry" />
        </mxCell>
        <mxCell id="dHFoVSKMH6eHMZOiBptk-59" style="edgeStyle=orthogonalEdgeStyle;rounded=0;orthogonalLoop=1;jettySize=auto;html=1;exitX=0.5;exitY=1;exitDx=0;exitDy=0;entryX=0.5;entryY=0;entryDx=0;entryDy=0;" edge="1" parent="WIyWlLk6GJQsqaUBKTNV-1" source="dHFoVSKMH6eHMZOiBptk-54" target="dHFoVSKMH6eHMZOiBptk-39">
          <mxGeometry relative="1" as="geometry" />
        </mxCell>
        <mxCell id="dHFoVSKMH6eHMZOiBptk-60" value="Nein" style="edgeLabel;html=1;align=center;verticalAlign=middle;resizable=0;points=[];" vertex="1" connectable="0" parent="dHFoVSKMH6eHMZOiBptk-59">
          <mxGeometry x="0.0261" y="1" relative="1" as="geometry">
            <mxPoint y="1" as="offset" />
          </mxGeometry>
        </mxCell>
        <mxCell id="dHFoVSKMH6eHMZOiBptk-64" style="edgeStyle=orthogonalEdgeStyle;rounded=0;orthogonalLoop=1;jettySize=auto;html=1;exitX=0;exitY=0.5;exitDx=0;exitDy=0;entryX=0;entryY=0.5;entryDx=0;entryDy=0;" edge="1" parent="WIyWlLk6GJQsqaUBKTNV-1" source="dHFoVSKMH6eHMZOiBptk-54" target="dHFoVSKMH6eHMZOiBptk-61">
          <mxGeometry relative="1" as="geometry">
            <Array as="points">
              <mxPoint x="110" y="350" />
              <mxPoint x="110" y="660" />
            </Array>
          </mxGeometry>
        </mxCell>
        <mxCell id="dHFoVSKMH6eHMZOiBptk-65" value="Ja" style="edgeLabel;html=1;align=center;verticalAlign=middle;resizable=0;points=[];" vertex="1" connectable="0" parent="dHFoVSKMH6eHMZOiBptk-64">
          <mxGeometry x="-0.0003" y="2" relative="1" as="geometry">
            <mxPoint as="offset" />
          </mxGeometry>
        </mxCell>
        <mxCell id="dHFoVSKMH6eHMZOiBptk-54" value="Gespannt?" style="rhombus;whiteSpace=wrap;html=1;shadow=0;fontFamily=Helvetica;fontSize=12;align=center;strokeWidth=1;spacing=6;spacingTop=-4;" vertex="1" parent="WIyWlLk6GJQsqaUBKTNV-1">
          <mxGeometry x="160" y="310" width="120" height="80" as="geometry" />
        </mxCell>
        <mxCell id="dHFoVSKMH6eHMZOiBptk-84" style="edgeStyle=orthogonalEdgeStyle;rounded=0;orthogonalLoop=1;jettySize=auto;html=1;exitX=1;exitY=0.5;exitDx=0;exitDy=0;entryX=0;entryY=0.5;entryDx=0;entryDy=0;" edge="1" parent="WIyWlLk6GJQsqaUBKTNV-1" source="dHFoVSKMH6eHMZOiBptk-61" target="dHFoVSKMH6eHMZOiBptk-50">
          <mxGeometry relative="1" as="geometry" />
        </mxCell>
        <mxCell id="dHFoVSKMH6eHMZOiBptk-61" value="Bauteilbucht öffnen" style="rounded=1;whiteSpace=wrap;html=1;fontSize=12;glass=0;strokeWidth=1;shadow=0;" vertex="1" parent="WIyWlLk6GJQsqaUBKTNV-1">
          <mxGeometry x="160" y="640" width="120" height="40" as="geometry" />
        </mxCell>
        <mxCell id="dHFoVSKMH6eHMZOiBptk-88" style="edgeStyle=orthogonalEdgeStyle;rounded=0;orthogonalLoop=1;jettySize=auto;html=1;exitX=0;exitY=0.5;exitDx=0;exitDy=0;entryX=1;entryY=0.5;entryDx=0;entryDy=0;" edge="1" parent="WIyWlLk6GJQsqaUBKTNV-1" source="dHFoVSKMH6eHMZOiBptk-66" target="dHFoVSKMH6eHMZOiBptk-67">
          <mxGeometry relative="1" as="geometry" />
        </mxCell>
        <mxCell id="dHFoVSKMH6eHMZOiBptk-66" value="Roboterarm über Box positionieren" style="rounded=1;whiteSpace=wrap;html=1;fontSize=12;glass=0;strokeWidth=1;shadow=0;" vertex="1" parent="WIyWlLk6GJQsqaUBKTNV-1">
          <mxGeometry x="309" y="706" width="120" height="40" as="geometry" />
        </mxCell>
        <mxCell id="dHFoVSKMH6eHMZOiBptk-89" style="edgeStyle=orthogonalEdgeStyle;rounded=0;orthogonalLoop=1;jettySize=auto;html=1;exitX=0;exitY=0.5;exitDx=0;exitDy=0;entryX=0;entryY=0.5;entryDx=0;entryDy=0;" edge="1" parent="WIyWlLk6GJQsqaUBKTNV-1" source="dHFoVSKMH6eHMZOiBptk-67" target="dHFoVSKMH6eHMZOiBptk-68">
          <mxGeometry relative="1" as="geometry" />
        </mxCell>
        <mxCell id="dHFoVSKMH6eHMZOiBptk-67" value="Sauger deaktivieren" style="rounded=1;whiteSpace=wrap;html=1;fontSize=12;glass=0;strokeWidth=1;shadow=0;" vertex="1" parent="WIyWlLk6GJQsqaUBKTNV-1">
          <mxGeometry x="159" y="706" width="120" height="40" as="geometry" />
        </mxCell>
        <mxCell id="dHFoVSKMH6eHMZOiBptk-90" style="edgeStyle=orthogonalEdgeStyle;rounded=0;orthogonalLoop=1;jettySize=auto;html=1;exitX=1;exitY=0.5;exitDx=0;exitDy=0;entryX=0;entryY=0.5;entryDx=0;entryDy=0;" edge="1" parent="WIyWlLk6GJQsqaUBKTNV-1" source="dHFoVSKMH6eHMZOiBptk-68" target="dHFoVSKMH6eHMZOiBptk-76">
          <mxGeometry relative="1" as="geometry" />
        </mxCell>
        <mxCell id="dHFoVSKMH6eHMZOiBptk-68" value="Meldung schicken&lt;br&gt;(Bauteil abgelegt)" style="rounded=1;whiteSpace=wrap;html=1;fontSize=12;glass=0;strokeWidth=1;shadow=0;" vertex="1" parent="WIyWlLk6GJQsqaUBKTNV-1">
          <mxGeometry x="160" y="768" width="120" height="40" as="geometry" />
        </mxCell>
        <mxCell id="dHFoVSKMH6eHMZOiBptk-71" style="edgeStyle=orthogonalEdgeStyle;rounded=0;orthogonalLoop=1;jettySize=auto;html=1;exitX=0.5;exitY=1;exitDx=0;exitDy=0;entryX=0.5;entryY=0;entryDx=0;entryDy=0;" edge="1" parent="WIyWlLk6GJQsqaUBKTNV-1" source="dHFoVSKMH6eHMZOiBptk-69" target="WIyWlLk6GJQsqaUBKTNV-6">
          <mxGeometry relative="1" as="geometry" />
        </mxCell>
        <mxCell id="dHFoVSKMH6eHMZOiBptk-69" value="Eingabe sperren" style="rounded=1;whiteSpace=wrap;html=1;fontSize=12;glass=0;strokeWidth=1;shadow=0;" vertex="1" parent="WIyWlLk6GJQsqaUBKTNV-1">
          <mxGeometry x="160" y="100" width="120" height="40" as="geometry" />
        </mxCell>
        <mxCell id="dHFoVSKMH6eHMZOiBptk-76" value="Eingabe freigeben" style="rounded=1;whiteSpace=wrap;html=1;fontSize=12;glass=0;strokeWidth=1;shadow=0;" vertex="1" parent="WIyWlLk6GJQsqaUBKTNV-1">
          <mxGeometry x="308" y="768" width="120" height="40" as="geometry" />
        </mxCell>
      </root>
    </mxGraphModel>
  </diagram>
</mxfile>
